<?xml version="1.0" encoding="utf-8"?>
<svg version="1.1" xmlns="http://www.w3.org/2000/svg" xmlns:xlink="http://www.w3.org/1999/xlink"  viewBox="0 0 170 170">
<style type="text/css">
	.st0{fill:#FEAD04;}
	.st1{fill:#032E3E;}
	.st2{fill:#FFFFFF;}
	.st3{fill:#FF0135;}
	.st4{fill:#FA7E0C;}
</style>
<path class="st0" d="M20.1,59.7h29.7V35.5H21.6c-0.8,0-1.3,0.2-1.8,0.7L9.5,45.4c-3,2.9-2.6,5.1,0.5,7.5l8.7,6.4
	C19.1,59.6,19.6,59.7,20.1,59.7L20.1,59.7z"/>
<path class="st1" d="M27.1,50.5h23.4v-7H27.1c-2,0-3.6,1.6-3.6,3.5S25.1,50.5,27.1,50.5L27.1,50.5z"/>
<path class="st1" d="M79.7,168c31.7,0.7,58.5-13.8,80.2-54.7c2.7-5.5-2.1-9.9-11-9.9c-13.7,0.1-35.1-17.6-36.6-26.4
	c-17.5,6.1-26.8,14-40.1,14c-11.1,0-15-0.8-22.3-4.9c-1.9,0.6-3.9,1-6.2,0.9c-8.3-0.3-22.9-7.6-34.4-24.1c-3.8-5.5-5.9-2.6-6.9,3.5
	C-6.4,116.8,29.1,166.3,79.7,168L79.7,168z"/>
<path class="st2" d="M76.4,91.7c-11.1,0-19.5-4.5-23.6-7.1V36.3C57.5,28.1,67.7,23,79.5,23h0.6c9.6,0.1,28,8.6,29.3,28.4v24.5
	c-3.3,4-12.8,13.8-28.1,15.6C79.7,91.7,78,91.7,76.4,91.7z"/>
<path class="st1" d="M79.5,26c0.2,0,0.4,0,0.6,0c4,0.1,10.5,2,15.9,6.1c6.4,4.8,9.9,11.3,10.4,19.4v23.3
	c-3.6,4.1-12.1,12.1-25.4,13.7c-1.5,0.2-3,0.3-4.5,0.3c-9.2,0-16.5-3.3-20.6-5.8V37.1C60.2,30.2,69.1,26,79.5,26L79.5,26 M79.5,20
	c-13.7,0-24.7,6.2-29.7,15.5v50.7c2.5,1.8,12.5,8.6,26.6,8.6c1.7,0,3.4-0.1,5.2-0.3c18.6-2.2,28.9-15.1,30.7-17.5
	c0-8.5,0-17.1,0-25.6C111,29,90.5,20.1,80.2,20C79.9,20,79.7,20,79.5,20L79.5,20z M49.8,86.2L49.8,86.2L49.8,86.2z M49.8,86.2
	L49.8,86.2L49.8,86.2L49.8,86.2z"/>
<circle class="st1" cx="77.6" cy="47.9" r="7.5"/>
<path class="st2" d="M112.4,76.9c-37.2-15.2-45.8-17.1-62.6,9.3c-10.3,16.3-10.5,31.2-6.4,45c3.3,11,11.6,24.1,27.9,27
	c0.3,0.1-6.7-13.9,1.6-35.5C78.4,108.6,92.3,88.1,112.4,76.9L112.4,76.9z"/>
<path class="st3" d="M78.4,167.9c0.4,0,0.9,0,1.3,0.1c31.7,0.7,58.5-13.8,80.2-54.7c2.7-5.5-2.1-9.9-11-9.9
	c-11.3,0.1-28-12.1-34.2-21.3c-5.4,2.9-10.9,6.4-16,10.8c-11,9.3-20.9,20.3-24.9,34.6c-2.7,10-2.7,21.8,1.8,36.1L78.4,167.9
	L78.4,167.9z"/>
<path class="st0" d="M156.7,43.3l-22.1,71.4c-0.2,0.7,0.2,1.9,0.9,1.8l6.5-0.9c0.8-0.1,1.5-0.2,1.8-0.9l25.1-64.5
	c0.3-0.7-0.2-1.5-0.9-1.8l-3.6-1.5l-5.8-4.5C157.9,41.9,156.9,42.6,156.7,43.3L156.7,43.3z"/>
<path class="st4" d="M143.6,114.8c0-0.1,0.1-0.1,0.1-0.2l25.1-64.5c0.3-0.7-0.2-1.5-0.9-1.8l-3-1.2l-24.5,66.5L143.6,114.8
	L143.6,114.8z"/>
<path class="st0" d="M139.3,46.2L126,117.5c-0.1,0.8,0.4,1.5,1.1,1.6l8.6,1.6c0.8,0.1,1.5-0.4,1.6-1.1l13.3-71.3
	c0.1-0.8-0.4-1.5-1.1-1.6l-8.6-1.6C140.2,44.9,139.4,45.4,139.3,46.2z"/>
<path class="st0" d="M121,45.3l1.6,76.8c0,0.8,0.7,1.4,1.4,1.4l8.8-0.2c0.8,0,1.4-0.7,1.4-1.4l-1.6-76.8c0-0.8-0.7-1.4-1.4-1.4
	l-8.8,0.2C121.6,43.9,121,44.6,121,45.3z"/>
<path class="st4" d="M132.9,123.3c0.8,0,1.4-0.7,1.4-1.4L133,58.5l-1,4.2L132.9,123.3z"/>
<path class="st4" d="M138,111.1c0.8,0.1,1.5-0.4,1.6-1.1l11.1-62.4l-1.8,3.9L138,111.1z"/>
<path class="st1" d="M163.3,70.5c-14.3,0.1-41.6,2.9-64.6,22.4c-11,9.3-20.9,20.3-24.9,34.6c-2.7,10-2.7,21.8,1.8,36.1l-9.4-1.8
	c-3.8-14.1-3.5-26.1-0.7-36.5C70,108.9,81,96.7,93.1,86.4c27.1-22.9,59.5-24.7,73.6-24.4L163.3,70.5L163.3,70.5z"/>
<path class="st1" d="M79.7,168c22.2,0.5,42.1-6.5,59.5-24.9c-1.5-1.6-3.8-4.1-4.5-4.5c-0.9-0.5-2.8-1.9-6.6,2.1
	c-17.8,19.3-51.4,18.1-51.4,18.1c-1.1,0.1-2.2-0.1-3.2,0.1c-5.5,1.2-8.5,4.1-9.5,7C69.1,167,74.3,167.8,79.7,168L79.7,168z"/>
<path class="st1" d="M94.2,132.9c-2.3-0.4-3.8-2.6-3.4-4.9c0.4-2.3,2.6-3.8,4.9-3.4c0.1,0,22.6,4.4,39.9-13.4c1.6-1.7,4.3-1.7,6-0.1
	s1.7,4.3,0.1,6C121.1,138.1,94.2,132.9,94.2,132.9z"/>
</svg>
